<svg width="82" height="82" viewBox="0 0 82 82" fill="none" xmlns="http://www.w3.org/2000/svg">
<path d="M41 76.875C60.8132 76.875 76.875 60.8132 76.875 41C76.875 21.1868 60.8132 5.125 41 5.125C21.1868 5.125 5.125 21.1868 5.125 41C5.125 60.8132 21.1868 76.875 41 76.875Z" fill="url(#paint0_linear_138_18)"/>
<path d="M54.3601 51.9716L55.9537 41.8459H45.9846V35.2779C45.9846 32.5071 47.3747 29.8047 51.8399 29.8047H56.375V21.1842C56.375 21.1842 52.2609 20.5 48.3295 20.5C40.1154 20.5 34.7519 25.3507 34.7519 34.1284V41.8459H25.625V51.9716H34.7519V76.4509C36.584 76.7315 38.4585 76.875 40.3681 76.875C42.2777 76.875 44.1524 76.7315 45.9846 76.4509V51.9716H54.3601Z" fill="white"/>
<defs>
<linearGradient id="paint0_linear_138_18" x1="41" y1="5.125" x2="41" y2="76.6623" gradientUnits="userSpaceOnUse">
<stop stop-color="#18ACFE"/>
<stop offset="1" stop-color="#0163E0"/>
</linearGradient>
</defs>
</svg>
