<svg width="86" height="86" viewBox="0 0 86 86" fill="none" xmlns="http://www.w3.org/2000/svg">
<path d="M64.5 5.375H21.5C12.5944 5.375 5.375 12.5944 5.375 21.5V64.5C5.375 73.4056 12.5944 80.625 21.5 80.625H64.5C73.4056 80.625 80.625 73.4056 80.625 64.5V21.5C80.625 12.5944 73.4056 5.375 64.5 5.375Z" fill="url(#paint0_radial_138_337)"/>
<path d="M64.5 5.375H21.5C12.5944 5.375 5.375 12.5944 5.375 21.5V64.5C5.375 73.4056 12.5944 80.625 21.5 80.625H64.5C73.4056 80.625 80.625 73.4056 80.625 64.5V21.5C80.625 12.5944 73.4056 5.375 64.5 5.375Z" fill="url(#paint1_radial_138_337)"/>
<path d="M64.5 5.375H21.5C12.5944 5.375 5.375 12.5944 5.375 21.5V64.5C5.375 73.4056 12.5944 80.625 21.5 80.625H64.5C73.4056 80.625 80.625 73.4056 80.625 64.5V21.5C80.625 12.5944 73.4056 5.375 64.5 5.375Z" fill="url(#paint2_radial_138_337)"/>
<path d="M61.8125 28.2188C61.8125 30.4451 60.0076 32.25 57.7812 32.25C55.5549 32.25 53.75 30.4451 53.75 28.2188C53.75 25.9923 55.5549 24.1875 57.7812 24.1875C60.0076 24.1875 61.8125 25.9923 61.8125 28.2188Z" fill="white"/>
<path fill-rule="evenodd" clip-rule="evenodd" d="M43 56.4375C50.4213 56.4375 56.4375 50.4213 56.4375 43C56.4375 35.5787 50.4213 29.5625 43 29.5625C35.5787 29.5625 29.5625 35.5787 29.5625 43C29.5625 50.4213 35.5787 56.4375 43 56.4375ZM43 51.0625C47.4529 51.0625 51.0625 47.4529 51.0625 43C51.0625 38.5471 47.4529 34.9375 43 34.9375C38.5471 34.9375 34.9375 38.5471 34.9375 43C34.9375 47.4529 38.5471 51.0625 43 51.0625Z" fill="white"/>
<path fill-rule="evenodd" clip-rule="evenodd" d="M16.125 41.925C16.125 32.8942 16.125 28.3787 17.8825 24.9294C19.4285 21.8953 21.8953 19.4285 24.9294 17.8825C28.3787 16.125 32.8942 16.125 41.925 16.125H44.075C53.1058 16.125 57.6213 16.125 61.0705 17.8825C64.1047 19.4285 66.5715 21.8953 68.1174 24.9294C69.875 28.3787 69.875 32.8942 69.875 41.925V44.075C69.875 53.1058 69.875 57.6213 68.1174 61.0705C66.5715 64.1047 64.1047 66.5715 61.0705 68.1174C57.6213 69.875 53.1058 69.875 44.075 69.875H41.925C32.8942 69.875 28.3787 69.875 24.9294 68.1174C21.8953 66.5715 19.4285 64.1047 17.8825 61.0705C16.125 57.6213 16.125 53.1058 16.125 44.075V41.925ZM41.925 21.5H44.075C48.6792 21.5 51.8088 21.5042 54.2281 21.7018C56.5848 21.8944 57.7898 22.2433 58.6305 22.6717C60.6531 23.7023 62.2976 25.3469 63.3282 27.3695C63.7566 28.2101 64.1057 29.4152 64.2982 31.7719C64.4957 34.1912 64.5 37.3208 64.5 41.925V44.075C64.5 48.6792 64.4957 51.8088 64.2982 54.2281C64.1057 56.5848 63.7566 57.7898 63.3282 58.6305C62.2976 60.6531 60.6531 62.2976 58.6305 63.3282C57.7898 63.7566 56.5848 64.1057 54.2281 64.2982C51.8088 64.4957 48.6792 64.5 44.075 64.5H41.925C37.3208 64.5 34.1912 64.4957 31.7719 64.2982C29.4152 64.1057 28.2101 63.7566 27.3695 63.3282C25.3469 62.2976 23.7023 60.6531 22.6717 58.6305C22.2433 57.7898 21.8944 56.5848 21.7018 54.2281C21.5042 51.8088 21.5 48.6792 21.5 44.075V41.925C21.5 37.3208 21.5042 34.1912 21.7018 31.7719C21.8944 29.4152 22.2433 28.2101 22.6717 27.3695C23.7023 25.3469 25.3469 23.7023 27.3695 22.6717C28.2101 22.2433 29.4152 21.8944 31.7719 21.7018C34.1912 21.5042 37.3208 21.5 41.925 21.5Z" fill="white"/>
<defs>
<radialGradient id="paint0_radial_138_337" cx="0" cy="0" r="1" gradientUnits="userSpaceOnUse" gradientTransform="translate(32.25 61.8125) rotate(-55.3758) scale(68.5839)">
<stop stop-color="#B13589"/>
<stop offset="0.79309" stop-color="#C62F94"/>
<stop offset="1" stop-color="#8A3AC8"/>
</radialGradient>
<radialGradient id="paint1_radial_138_337" cx="0" cy="0" r="1" gradientUnits="userSpaceOnUse" gradientTransform="translate(29.5625 83.3125) rotate(-65.1363) scale(60.7219)">
<stop stop-color="#E0E8B7"/>
<stop offset="0.444662" stop-color="#FB8A2E"/>
<stop offset="0.71474" stop-color="#E2425C"/>
<stop offset="1" stop-color="#E2425C" stop-opacity="0"/>
</radialGradient>
<radialGradient id="paint2_radial_138_337" cx="0" cy="0" r="1" gradientUnits="userSpaceOnUse" gradientTransform="translate(1.34375 8.0625) rotate(-8.1301) scale(104.519 22.3556)">
<stop offset="0.156701" stop-color="#406ADC"/>
<stop offset="0.467799" stop-color="#6A45BE"/>
<stop offset="1" stop-color="#6A45BE" stop-opacity="0"/>
</radialGradient>
</defs>
</svg>
