<svg width="64" height="64" viewBox="0 0 64 64" fill="none" xmlns="http://www.w3.org/2000/svg">
<g clip-path="url(#clip0_138_173)">
<path fill-rule="evenodd" clip-rule="evenodd" d="M63.5 60.6364H49.5761V40.5027C49.5761 35.2327 47.3981 31.6351 42.6087 31.6351C38.9453 31.6351 36.908 34.0629 35.9597 36.4027C35.6041 37.2425 35.6597 38.4123 35.6597 39.5822V60.6364H21.8655C21.8655 60.6364 22.0433 24.9716 21.8655 21.7297H35.6597V27.8358C36.4746 25.166 40.8825 21.3556 47.9167 21.3556C56.6436 21.3556 63.5 26.952 63.5 39.0028V60.6364ZM7.91567 16.8631H7.82679C3.38183 16.8631 0.5 13.8889 0.5 10.1189C0.5 6.27549 3.46701 3.36365 8.00088 3.36365C12.531 3.36365 15.3166 6.2682 15.4055 10.1079C15.4055 13.8779 12.531 16.8631 7.91567 16.8631ZM2.08903 21.7297H14.3683V60.6364H2.08903V21.7297Z" fill="#007EBB"/>
</g>
<defs>
<clipPath id="clip0_138_173">
<rect width="63" height="63" fill="white" transform="translate(0.5 0.5)"/>
</clipPath>
</defs>
</svg>
