<svg width="86" height="86" viewBox="0 0 86 86" fill="none" xmlns="http://www.w3.org/2000/svg">
<path d="M22.7116 53.1926C23.1316 49.7152 24.5577 47.7684 27.2452 45.7727C31.0908 43.0696 35.8942 44.5985 35.8942 44.5985V35.5279C37.0621 35.4978 38.2304 35.5671 39.3852 35.7346V47.4077C39.3852 47.4077 34.5832 45.8788 30.7379 48.5832C28.0518 50.5776 26.6226 52.5261 26.2041 56.0034C26.191 57.8917 26.5453 60.3599 28.1773 62.494C27.7736 62.2871 27.3624 62.0514 26.9434 61.7869C23.3488 59.373 22.6941 55.7519 22.7116 53.1926ZM59.2192 18.756C56.5739 15.8573 55.5734 12.9306 55.2119 10.8746H58.5396C58.5396 10.8746 57.876 16.2654 62.7117 21.5667L62.7788 21.6379C61.4754 20.8181 60.2803 19.8505 59.2192 18.756ZM75.2496 26.9741V38.4124C75.2496 38.4124 71.0034 38.2463 67.8609 37.4468C63.4728 36.3285 60.6525 34.6136 60.6525 34.6136C60.6525 34.6136 58.7043 33.3908 58.5468 33.3056V56.9258C58.5468 58.241 58.1867 61.5254 57.0886 64.2648C55.6551 67.8486 53.443 70.2007 53.0361 70.6815C53.0361 70.6815 50.3457 73.8611 45.599 76.0025C41.3205 77.934 37.5639 77.885 36.4411 77.934C36.4411 77.934 29.9475 78.1912 24.1042 74.3937C22.8407 73.5566 21.6612 72.6087 20.5811 71.5619L20.6102 71.5829C26.4549 75.3803 32.947 75.1231 32.947 75.1231C34.0715 75.0742 37.8278 75.1231 42.105 73.1916C46.8473 71.0505 49.5421 67.8709 49.5421 67.8709C49.9447 67.3901 52.167 65.0377 53.5946 61.4529C54.6897 58.7148 55.0528 55.4288 55.0528 54.1138V30.4964C55.2103 30.5829 57.1571 31.8057 57.1571 31.8057C57.1571 31.8057 59.979 33.5222 64.3669 34.6389C67.5107 35.4384 71.7559 35.6048 71.7559 35.6048V26.6415C73.2082 26.9671 74.4464 27.0553 75.2496 26.9741Z" fill="#EE1D52"/>
<path d="M71.7587 26.6415V35.6018C71.7587 35.6018 67.5135 35.4355 64.3697 34.6362C59.9818 33.5179 57.1599 31.803 57.1599 31.803C57.1599 31.803 55.2131 30.5802 55.0556 30.4934V54.1165C55.0556 55.4318 54.6955 58.7175 53.5973 61.4556C52.1638 65.0407 49.9518 67.3928 49.5449 67.8736C49.5449 67.8736 46.8531 71.0532 42.1077 73.1946C37.8306 75.1261 34.0743 75.0771 32.9498 75.1261C32.9498 75.1261 26.4577 75.3833 20.613 71.5858L20.5838 71.5649C19.9667 70.9672 19.3859 70.3364 18.8441 69.6753C16.979 67.4011 15.8357 64.712 15.5484 63.9447V63.935C15.0862 62.6018 14.115 59.3996 14.2477 56.2982C14.4825 50.8265 16.4074 47.4679 16.9163 46.6265C18.2642 44.3322 20.0172 42.2792 22.0975 40.5594C23.9332 39.0751 26.0139 37.8942 28.2542 37.0652C30.6762 36.0917 33.2696 35.5698 35.8956 35.5279V44.5985C35.8956 44.5985 31.0919 43.0752 27.248 45.7727C24.5605 47.7684 23.1343 49.7152 22.7143 53.1926C22.6968 55.7519 23.3516 59.373 26.9433 61.7883C27.3622 62.0538 27.7734 62.2895 28.1771 62.4954C28.8043 63.311 29.5681 64.0219 30.4373 64.5989C33.9458 66.8198 36.8857 66.9749 40.6452 65.5325C43.1518 64.5682 45.0387 62.3948 45.9138 59.9866C46.4636 58.4829 46.4564 56.969 46.4564 55.4038V10.8746H55.2058C55.5676 12.9306 56.5678 15.8573 59.2131 18.756C60.2742 19.8505 61.4696 20.8181 62.7727 21.6379C63.1579 22.0363 65.1265 24.0055 67.6535 25.2145C68.9602 25.8394 70.3378 26.3182 71.7587 26.6415Z" fill="black"/>
<path d="M12.0645 61.1589V61.1659L12.2815 61.7545C12.2566 61.686 12.1759 61.4777 12.0645 61.1589Z" fill="#69C9D0"/>
<path d="M28.2532 37.065C26.0128 37.8943 23.9321 39.0752 22.0964 40.5593C20.0155 42.283 18.2629 44.3403 16.9167 46.6389C16.4078 47.4777 14.4829 50.839 14.2481 56.3107C14.1154 59.4121 15.0866 62.6142 15.5488 63.9475V63.9572C15.8405 64.7177 16.9794 67.4066 18.8445 69.6877C19.3863 70.3489 19.9671 70.9799 20.5842 71.5773C18.6071 70.2666 16.8438 68.6823 15.352 66.8755C13.5029 64.6213 12.3625 61.9601 12.0651 61.1745C12.0647 61.1689 12.0647 61.1633 12.0651 61.1579V61.1479C11.6013 59.816 10.6272 56.6125 10.7628 53.5071C10.9976 48.0353 12.9225 44.6768 13.4315 43.8353C14.7772 41.5362 16.5299 39.4789 18.6112 37.7557C20.4465 36.2708 22.5273 35.0899 24.768 34.2614C26.1656 33.7056 27.6216 33.2958 29.1107 33.0386C31.3548 32.6631 33.647 32.6303 35.9018 32.9421V35.5277C33.2734 35.5688 30.6773 36.0908 28.2532 37.065Z" fill="#69C9D0"/>
<path d="M55.2114 10.8746H46.4617V55.4052C46.4617 56.9704 46.4617 58.48 45.9194 59.988C45.0357 62.3949 43.1558 64.568 40.6505 65.5325C36.8899 66.9806 33.95 66.8199 30.4429 64.5989C29.5721 64.0243 28.8064 63.3159 28.1768 62.5024C31.1647 64.03 33.8391 64.0033 37.1522 62.7289C39.6561 61.7644 41.5387 59.591 42.4194 57.183C42.9706 55.6791 42.9634 54.1655 42.9634 52.6014V8.0625H55.045C55.045 8.0625 54.9096 9.16943 55.2114 10.8746ZM71.7567 24.1634V26.6415C70.3385 26.3177 68.9636 25.8389 67.6591 25.2145C65.132 24.0055 63.1632 22.0362 62.7783 21.6379C63.225 21.919 63.6886 22.1747 64.1664 22.4038C67.239 23.8741 70.2649 24.313 71.7567 24.1634Z" fill="#69C9D0"/>
</svg>
