<svg width="74" height="62" viewBox="0 0 74 62" fill="none" xmlns="http://www.w3.org/2000/svg">
<path fill-rule="evenodd" clip-rule="evenodd" d="M74 7.46686C71.281 8.7051 68.3535 9.54246 65.2826 9.9166C68.4186 7.99244 70.8249 4.9414 71.9585 1.30688C69.0223 3.08851 65.7778 4.38463 62.3117 5.07946C59.5492 2.05515 55.601 0.166626 51.2314 0.166626C42.8528 0.166626 36.0553 7.13725 36.0553 15.7336C36.0553 16.954 36.1856 18.1388 36.4462 19.2791C23.8284 18.6288 12.6439 12.4376 5.15137 3.00832C3.84398 5.31553 3.09688 7.99244 3.09688 10.843C3.09688 16.2414 5.77685 21.0072 9.85104 23.7999C7.36656 23.7242 5.02106 23.016 2.97094 21.858V22.0495C2.97094 29.5947 8.20484 35.8883 15.1544 37.3136C13.8818 37.6788 12.5396 37.8614 11.1541 37.8614C10.1768 37.8614 9.22122 37.7679 8.29606 37.5853C10.2289 43.7675 15.832 48.2706 22.4775 48.3909C17.2827 52.5688 10.7327 55.0586 3.62246 55.0586C2.39759 55.0586 1.18577 54.9874 0 54.8448C6.71938 59.2544 14.7027 61.8333 23.2724 61.8333C51.201 61.8333 66.4684 38.1153 66.4684 17.542C66.4684 16.8649 66.4553 16.1879 66.4293 15.5243C69.3959 13.3284 71.9716 10.5892 74 7.46686Z" fill="#00AAEC"/>
</svg>
