<svg width="1281" height="171" viewBox="0 0 1281 171" fill="none" xmlns="http://www.w3.org/2000/svg">
<g clip-path="url(#clip0_35_517)">
<path fill-rule="evenodd" clip-rule="evenodd" d="M1493.77 171.073L1385.92 50.9622C1345.98 12.1607 1276.68 -11.1643 1203.85 5.40274C1131.02 21.9698 1058.19 87.6816 985.363 95.9651C912.534 104.249 839.705 55.1039 766.876 50.9622C694.047 46.8204 621.219 96.5216 584.804 121.372L507.179 171.073H548.39H584.804C621.219 171.073 694.047 171.073 766.876 171.073C839.705 171.073 912.534 171.073 985.363 171.073C1058.19 171.073 1131.02 171.073 1203.85 171.073C1276.68 171.073 1349.51 171.073 1385.92 171.073H1422.34H1493.77Z" fill="url(#paint0_linear_35_517)"/>
<path fill-rule="evenodd" clip-rule="evenodd" d="M-108.885 126.91C-53.8105 82.062 58.552 50.5981 108.585 50.5981C158.619 50.5981 208.652 40.5424 258.685 53.1121C308.719 65.6817 358.752 100.877 408.785 113.446C458.818 126.016 508.852 115.96 558.885 120.988C608.919 126.016 658.952 146.128 683.969 156.183L752.206 181.323H708.985H683.969C658.952 181.323 608.919 181.323 558.885 181.323C508.852 181.323 458.818 181.323 408.785 181.323C358.752 181.323 308.719 181.323 258.685 181.323C208.652 181.323 158.619 181.323 108.585 181.323C58.552 181.323 8.5186 181.323 -16.4981 181.323L-171.705 174.766L-108.885 126.91Z" fill="url(#paint1_linear_35_517)"/>
<path fill-rule="evenodd" clip-rule="evenodd" d="M-139.079 220.759L-94.228 173.419C-71.9857 145.389 50.6963 107.313 98.1201 107.313C145.544 107.313 192.967 115.941 240.391 102.999C287.815 90.0573 375.119 18.2799 422.543 13.9659C469.967 9.65185 517.391 35.5359 564.815 57.106C612.238 78.6761 676.191 117.502 723.615 121.816C771.038 126.13 801.935 134.758 849.358 121.816C896.782 108.874 1041.01 52.792 1088.43 61.42C1135.85 70.0481 1183.28 104.56 1206.99 121.816L1289.1 190.84H1133.9H1110.19C1086.48 190.84 1039.05 190.84 991.629 190.84C944.205 190.84 896.782 190.84 849.358 190.84C801.935 190.84 754.51 190.84 707.086 190.84C659.662 190.84 612.238 190.84 564.815 190.84C517.391 190.84 469.967 190.84 422.543 190.84C375.119 190.84 327.696 190.84 280.272 190.84C232.848 190.84 185.425 190.84 138.001 190.84C90.5769 190.84 43.1529 190.84 19.4409 190.84L-139.079 220.759Z" fill="url(#paint2_linear_35_517)"/>
</g>
<defs>
<linearGradient id="paint0_linear_35_517" x1="1000.47" y1="0" x2="1000.47" y2="171.073" gradientUnits="userSpaceOnUse">
<stop stop-color="#FFC47E" stop-opacity="0.12"/>
<stop offset="1" stop-color="#FF9DB5" stop-opacity="0.38"/>
</linearGradient>
<linearGradient id="paint1_linear_35_517" x1="290.25" y1="46.79" x2="290.25" y2="181.323" gradientUnits="userSpaceOnUse">
<stop stop-color="#FFC47E" stop-opacity="0.12"/>
<stop offset="1" stop-color="#FF9DB5" stop-opacity="0.38"/>
</linearGradient>
<linearGradient id="paint2_linear_35_517" x1="575.011" y1="13.4902" x2="575.011" y2="220.759" gradientUnits="userSpaceOnUse">
<stop stop-color="#FFC47E" stop-opacity="0.12"/>
<stop offset="1" stop-color="#FF9DB5" stop-opacity="0.38"/>
</linearGradient>
<clipPath id="clip0_35_517">
<rect width="1281" height="171" fill="white"/>
</clipPath>
</defs>
</svg>
